<svg width="70" height="70" viewBox="0 0 70 70" fill="none" xmlns="http://www.w3.org/2000/svg">
<path d="M21.5 21.5H47.7929L21.5 47.7929V21.5Z" fill="#3F7CDE" stroke="white"/>
<path d="M20.5 49.5L1.20711 49.5L20.5 68.7929L20.5 49.5Z" fill="#3F7CDE" stroke="white"/>
<path d="M49.5 49.5L68.7929 49.5L49.5 68.7929L49.5 49.5Z" fill="#3F7CDE" stroke="white"/>
<path d="M20.5 20.5L1.20711 20.5L20.5 1.20711L20.5 20.5Z" fill="#3F7CDE" stroke="white"/>
<path d="M49.5 20.5L68.7929 20.5L49.5 1.20711L49.5 20.5Z" fill="#3F7CDE" stroke="white"/>
<path d="M48.5 48.5L22.2071 48.5L48.5 22.2071L48.5 48.5Z" fill="#439DDE" stroke="white"/>
<rect x="21.5" y="0.5" width="27" height="20" fill="#2F62B5" stroke="white"/>
<rect x="21.5" y="49.5" width="27" height="20" fill="#2F62B5" stroke="white"/>
<rect x="0.5" y="21.5" width="20" height="27" fill="#2F62B5" stroke="white"/>
<rect x="49.5" y="21.5" width="20" height="27" fill="#2F62B5" stroke="white"/>
</svg>
