<svg width="209" height="72" viewBox="0 0 209 72" fill="none" xmlns="http://www.w3.org/2000/svg">
<path d="M21.75 49.1893V23.75H47.1893L21.75 49.1893Z" fill="#3F7CDE" stroke="white" stroke-width="1.5"/>
<path d="M20.25 70.1893L20.25 51.75L1.81066 51.75L20.25 70.1893Z" fill="#3F7CDE" stroke="white" stroke-width="1.5"/>
<path d="M49.75 70.1893L49.75 51.75L68.1893 51.75L49.75 70.1893Z" fill="#3F7CDE" stroke="white" stroke-width="1.5"/>
<path d="M20.25 3.81066L20.25 22.25L1.81066 22.25L20.25 3.81066Z" fill="#3F7CDE" stroke="white" stroke-width="1.5"/>
<path d="M49.75 3.81066L49.75 22.25L68.1893 22.25L49.75 3.81066Z" fill="#3F7CDE" stroke="white" stroke-width="1.5"/>
<path d="M48.25 24.8107L48.25 50.25L22.8107 50.25L48.25 24.8107Z" fill="#439DDE" stroke="white" stroke-width="1.5"/>
<rect x="21.75" y="2.75" width="26.5" height="19.5" fill="#3369C1" stroke="white" stroke-width="1.5"/>
<rect x="21.75" y="51.75" width="26.5" height="19.5" fill="#3369C1" stroke="white" stroke-width="1.5"/>
<rect x="0.75" y="23.75" width="19.5" height="26.5" fill="#3369C1" stroke="white" stroke-width="1.5"/>
<rect x="49.75" y="23.75" width="19.5" height="26.5" fill="#3369C1" stroke="white" stroke-width="1.5"/>
<path d="M89.1562 48.4375C90.1979 50.1875 91.5208 51.2812 93.125 51.7188C94.7292 52.1562 95.8021 52.375 96.3438 52.375C98.5729 52.375 100.979 51.2083 103.562 48.875C104 48.375 104.219 47.8229 104.219 47.2188V47C104.177 46.3333 103.688 45.6562 102.75 44.9688L93.375 38.75C91.4167 37.375 90.1667 36.1146 89.625 34.9688C89.0833 33.8229 88.8125 32.9375 88.8125 32.3125C88.8125 30.9375 89.4062 29.3854 90.5938 27.6562C96.0729 20.0729 102.385 16.2604 109.531 16.2188C110.906 16.3229 112.115 16.5833 113.156 17C115.406 18.4167 116.531 20.4479 116.531 23.0938C116.531 25.4896 115.594 28.4062 113.719 31.8438C112.823 33.1771 111.875 33.9062 110.875 34.0312C109.896 34.1562 109.281 34.2188 109.031 34.2188C107.719 34.2188 106.688 33.7083 105.938 32.6875C105.896 32.6042 105.875 32.5208 105.875 32.4375C105.875 32.3958 105.885 32.3438 105.906 32.2812C105.948 32.1354 106 32 106.062 31.875C106.146 31.75 106.198 31.6667 106.219 31.625C109.198 27.6875 110.729 25.25 110.812 24.3125C110.896 23.3542 110.938 22.8021 110.938 22.6562C110.938 21.3229 110.396 20.6562 109.312 20.6562H109.094C105.927 21.8021 103.458 23.4375 101.688 25.5625C99.9167 27.6875 98.625 29.6042 97.8125 31.3125C97.7292 31.6042 97.6875 31.8854 97.6875 32.1562C97.6875 32.7604 97.9062 33.2917 98.3438 33.75C98.9688 34.4375 100.01 35.2396 101.469 36.1562C105.865 38.7396 108.802 40.9688 110.281 42.8438C111.76 44.7188 112.5 46.4375 112.5 48C112.5 49.1042 112.24 50.25 111.719 51.4375C110.865 53.4792 108.958 55.4167 106 57.25C103.062 59.0625 100.594 60.1458 98.5938 60.5C96.6146 60.8333 95.2917 61 94.625 61C92.4167 61 90.6562 60.3125 89.3438 58.9375C88.4479 58 88 56.6146 88 54.7812C88 53.0521 88.3854 50.9375 89.1562 48.4375ZM136.844 29.375H137.094C137.594 29.375 137.99 29.5 138.281 29.75C138.573 30 138.708 30.2917 138.688 30.625C138.688 30.9375 138.521 31.1562 138.188 31.2812L128.531 32.5938L121.75 54.6875L125.156 49.2812C125.302 49.1146 125.5 49.0312 125.75 49.0312C125.854 49.0312 126.042 49.0729 126.312 49.1562C126.583 49.2396 126.865 49.4583 127.156 49.8125C127.344 50.0417 127.438 50.2708 127.438 50.5C127.438 50.6458 127.406 50.7917 127.344 50.9375L122.219 59.6562C121.552 60.5104 120.792 60.9375 119.938 60.9375C119.875 60.9375 119.583 60.9271 119.062 60.9062C118.562 60.8854 117.802 60.4271 116.781 59.5312C115.99 59.0729 115.229 58.1875 114.5 56.875C114.229 56.3958 114.094 55.7812 114.094 55.0312C114.094 53.6146 114.542 51.7083 115.438 49.3125C115.708 48.4792 116.302 46.5833 117.219 43.625C118.156 40.6458 119.177 37.3333 120.281 33.6875L118.844 33.875C117.865 34 116.99 34.0625 116.219 34.0625C113.552 34.0625 112.219 33.2604 112.219 31.6562C112.219 31.0312 112.417 30.2812 112.812 29.4062C114.854 29.7812 117.542 29.9688 120.875 29.9688H121.406C122.26 27.1354 122.958 24.6979 123.5 22.6562C124.062 20.6146 124.354 19.3438 124.375 18.8438C128.354 19.4479 130.344 21.4792 130.344 24.9375C130.344 26.0833 130.125 27.3854 129.688 28.8438L129.406 29.75C131.823 29.6458 134.302 29.5208 136.844 29.375ZM150.719 38.0625C146.49 39.2292 143 41.4792 140.25 44.8125C137.521 48.1458 136.062 51.625 135.875 55.25C135.875 55.75 135.99 56.0417 136.219 56.125C136.448 56.2083 136.615 56.25 136.719 56.25C136.927 56.25 137.135 56.1458 137.344 55.9375C140.344 52.2083 143.802 47.1771 147.719 40.8438C149.635 41.6979 150.938 42.6042 151.625 43.5625C152.312 44.5208 152.656 45.4271 152.656 46.2812C152.656 46.9688 152.49 47.7292 152.156 48.5625L147.906 61L145.906 59.8125C145.781 59.7292 145.667 59.6458 145.562 59.5625C144.833 59.1042 144.26 58.625 143.844 58.125C143.448 57.6042 143.25 56.9583 143.25 56.1875C143.25 56 143.26 55.8125 143.281 55.625C143.406 54.5833 143.958 53.1042 144.938 51.1875L141.125 57.875C139.833 59.8333 138.688 60.8438 137.688 60.9062C136.688 60.9479 136.146 60.9688 136.062 60.9688C134.25 60.9688 132.583 59.9375 131.062 57.875C130.312 56.3125 129.938 54.6146 129.938 52.7812C129.938 50.7396 130.396 48.5312 131.312 46.1562C133.042 41.6146 135.708 38.1458 139.312 35.75C141.188 34.6667 143.021 34.125 144.812 34.125C145.208 34.125 145.604 34.1562 146 34.2188C148.167 34.5312 149.74 35.8125 150.719 38.0625ZM182.031 20.3125C182.177 20.7708 182.25 21.2292 182.25 21.6875C182.25 22.1875 182.125 22.8125 181.875 23.5625C181.625 24.2917 181.052 24.875 180.156 25.3125C179.781 25.5 179.365 25.5938 178.906 25.5938C178.281 25.5938 177.594 25.4271 176.844 25.0938C176.365 24.8229 175.979 24.3229 175.688 23.5938C175.542 23.2396 175.469 22.8854 175.469 22.5312C175.469 22.1562 175.552 21.7708 175.719 21.375C175.865 21.0833 175.938 20.8125 175.938 20.5625C175.938 20.3958 175.875 20.1875 175.75 19.9375C175.646 19.6667 175.396 19.4479 175 19.2812C174.792 19.1979 174.594 19.1562 174.406 19.1562C174.219 19.1562 174.031 19.1875 173.844 19.25C172.615 19.8333 171.635 20.9479 170.906 22.5938C170.448 23.5729 170.062 24.6458 169.75 25.8125L168.594 29.5938C170.406 29.4896 172.26 29.3646 174.156 29.2188H174.344C174.76 29.2188 175.073 29.3438 175.281 29.5938C175.51 29.8438 175.625 30.1354 175.625 30.4688C175.625 30.7812 175.49 31 175.219 31.125L167.75 32.4062L159.031 61C156.906 60.2917 155.354 59.3229 154.375 58.0938C153.875 57.4688 153.625 56.5625 153.625 55.375C153.625 54.2917 153.844 52.9688 154.281 51.4062L159.844 33.75C159.135 33.8542 158.5 33.9062 157.938 33.9062C155.812 33.9062 154.75 33.1042 154.75 31.5C154.75 30.875 154.906 30.125 155.219 29.25C156.719 29.6042 158.667 29.7812 161.062 29.7812L163.094 23.3125C164.552 20 166.385 17.9062 168.594 17.0312C169.198 16.7396 169.938 16.5104 170.812 16.3438C171.688 16.1979 172.583 16.125 173.5 16.125C174.417 16.125 175.333 16.2292 176.25 16.4375C177.188 16.6458 178.073 16.9479 178.906 17.3438C180.594 18.2188 181.635 19.2083 182.031 20.3125ZM193.719 20.3125C193.865 20.7708 193.938 21.2292 193.938 21.6875C193.938 22.1875 193.812 22.8125 193.562 23.5625C193.312 24.2917 192.74 24.875 191.844 25.3125C191.469 25.5 191.052 25.5938 190.594 25.5938C189.969 25.5938 189.281 25.4271 188.531 25.0938C188.052 24.8229 187.667 24.3229 187.375 23.5938C187.229 23.2396 187.156 22.8854 187.156 22.5312C187.156 22.1562 187.24 21.7708 187.406 21.375C187.552 21.0833 187.625 20.8125 187.625 20.5625C187.625 20.3958 187.562 20.1875 187.438 19.9375C187.333 19.6667 187.083 19.4479 186.688 19.2812C186.479 19.1979 186.281 19.1562 186.094 19.1562C185.906 19.1562 185.719 19.1875 185.531 19.25C184.302 19.8333 183.323 20.9479 182.594 22.5938C182.135 23.5729 181.75 24.6458 181.438 25.8125L180.281 29.5938C182.094 29.4896 183.948 29.3646 185.844 29.2188H186.031C186.448 29.2188 186.76 29.3438 186.969 29.5938C187.198 29.8438 187.312 30.1354 187.312 30.4688C187.312 30.7812 187.177 31 186.906 31.125L179.438 32.4062L170.719 61C168.594 60.2917 167.042 59.3229 166.062 58.0938C165.562 57.4688 165.312 56.5625 165.312 55.375C165.312 54.2917 165.531 52.9688 165.969 51.4062L171.531 33.75C170.823 33.8542 170.188 33.9062 169.625 33.9062C167.5 33.9062 166.438 33.1042 166.438 31.5C166.438 30.875 166.594 30.125 166.906 29.25C168.406 29.6042 170.354 29.7812 172.75 29.7812L174.781 23.3125C176.24 20 178.073 17.9062 180.281 17.0312C180.885 16.7396 181.625 16.5104 182.5 16.3438C183.375 16.1979 184.271 16.125 185.188 16.125C186.104 16.125 187.021 16.2292 187.938 16.4375C188.875 16.6458 189.76 16.9479 190.594 17.3438C192.281 18.2188 193.323 19.2083 193.719 20.3125Z" fill="#16253D"/>
</svg>
